<svg xmlns="http://www.w3.org/2000/svg" xmlns:xlink="http://www.w3.org/1999/xlink" width="54.636" height="57.589" viewBox="0 0 54.636 57.589">
  <defs>
    <linearGradient id="linear-gradient" x1="0.401" y1="0.334" x2="-0.164" y2="1.097" gradientUnits="objectBoundingBox">
      <stop offset="0" stop-color="#198754"/>
      <stop offset="0.002" stop-color="#198754"/>
      <stop offset="1" stop-color="#38eb98"/>
    </linearGradient>
    <linearGradient id="linear-gradient-2" x1="-0.549" y1="0.148" x2="1.003" y2="0.073" gradientUnits="objectBoundingBox">
      <stop offset="0" stop-color="#1e6326"/>
      <stop offset="0.998" stop-color="#198754"/>
      <stop offset="1" stop-color="#81cf4e"/>
    </linearGradient>
    <linearGradient id="linear-gradient-3" x1="0.599" y1="0.666" x2="1.164" y2="-0.097" xlink:href="#linear-gradient"/>
    <linearGradient id="linear-gradient-4" x1="1.549" y1="0.852" x2="-0.003" y2="0.927" xlink:href="#linear-gradient-2"/>
  </defs>
  <g id="Logo" transform="translate(-331.926 -267.839)">
    <g id="Groupe_11" data-name="Groupe 11" transform="translate(331.926 267.839)">
      <path id="Tracé_8" data-name="Tracé 8" d="M358.789,267.839c-.09,5.473-6.151,11.81-15.912,20.864-20.344,18.871-8.839,35.315,6.181,33.126L355,306.357l-14.065.653,18.533-20.387C368.489,276.7,358.789,267.839,358.789,267.839Z" transform="translate(-331.926 -267.839)" fill="url(#linear-gradient)"/>
      <path id="Tracé_9" data-name="Tracé 9" d="M346.527,350.525q.584.211,1.19.374l.011,0h0a14.938,14.938,0,0,0,6.007.321l5.94-15.471-14.061.653C342.05,340.406,341.194,348.312,346.527,350.525Z" transform="translate(-336.604 -297.233)" fill="url(#linear-gradient-2)"/>
    </g>
    <g id="Groupe_20" data-name="Groupe 20" transform="translate(355.18 271.242)">
      <path id="Tracé_8-2" data-name="Tracé 8" d="M336.445,322.025c.09-5.473,6.151-11.81,15.912-20.864,20.344-18.871,8.839-35.315-6.181-33.126l-5.94,15.471,14.065-.653L335.768,303.24C326.745,313.165,336.445,322.025,336.445,322.025Z" transform="translate(-331.926 -267.839)" fill="url(#linear-gradient-3)"/>
      <path id="Tracé_9-2" data-name="Tracé 9" d="M355.884,336.613q-.584-.211-1.19-.374l-.011,0h0a14.937,14.937,0,0,0-6.007-.321l-5.94,15.471,14.061-.653C360.361,346.732,361.217,338.826,355.884,336.613Z" transform="translate(-334.425 -335.719)" fill="url(#linear-gradient-4)"/>
    </g>
  </g>
</svg>
